<svg width="48" height="43" viewBox="0 0 48 43" fill="none" xmlns="http://www.w3.org/2000/svg">
<path fill-rule="evenodd" clip-rule="evenodd" d="M10.5573 25.892C10.6577 25.9254 10.7608 25.9497 10.8655 25.9644C11.526 27.5226 12.1828 29.0824 12.8359 30.6437C14.0103 33.4531 15.1939 36.3467 15.4531 37.1787C15.7776 38.2025 16.1184 38.899 16.492 39.3758C16.6858 39.6189 16.9075 39.8339 17.169 39.9975C17.3052 40.0828 17.451 40.1519 17.6033 40.2032C18.3503 40.4837 19.0321 40.3668 19.4593 40.2242C19.71 40.1385 19.9486 40.0207 20.169 39.8736L20.1807 39.8689L26.7784 35.7506L34.401 41.5985C34.513 41.685 34.6344 41.7575 34.7652 41.8159C35.6803 42.2133 36.5675 42.3535 37.4033 42.2413C38.2344 42.1244 38.8951 41.7762 39.3877 41.3812C39.9534 40.9247 40.4043 40.342 40.7045 39.6796L40.7255 39.6282L40.7325 39.6095L40.7372 39.6002V39.5955L40.7395 39.5932C40.7801 39.4926 40.8113 39.3886 40.8329 39.2823L47.7901 4.16453C47.8121 4.05212 47.823 3.93783 47.8228 3.82328C47.8228 2.79488 47.4352 1.81555 46.527 1.22422C45.7473 0.717028 44.8811 0.693654 44.3325 0.735726C43.7442 0.782471 43.1979 0.927383 42.8313 1.04425C42.6261 1.10935 42.4236 1.18265 42.2243 1.26395L42.1986 1.27564L3.17756 16.5989L3.17289 16.6012C3.04087 16.6499 2.9108 16.7037 2.78301 16.7625C2.47358 16.9018 2.17676 17.0676 1.89585 17.258C1.36588 17.6203 0.144871 18.616 0.352653 20.2614C0.516078 21.5703 1.41258 22.3767 1.96122 22.7647C2.26005 22.9774 2.54487 23.1293 2.75499 23.2298C2.84838 23.2765 3.04916 23.356 3.13554 23.3934L3.15888 23.4004L10.5573 25.892ZM43.5644 4.5011H43.5597C43.5396 4.51003 43.5194 4.5186 43.499 4.52681L4.43126 19.8711C4.41116 19.8792 4.39092 19.887 4.37056 19.8945L4.34721 19.9015C4.27584 19.9296 4.20574 19.9608 4.1371 19.995C4.20208 20.0322 4.26911 20.0658 4.33787 20.0955L11.6733 22.5683C11.8044 22.6126 11.9298 22.6722 12.0468 22.746L36.2733 8.54694L36.2967 8.53526C36.3908 8.47801 36.4874 8.42498 36.5862 8.37632C36.7543 8.28984 37.0228 8.16363 37.3263 8.07014C37.5364 8.00469 38.1597 7.82005 38.8321 8.03742C39.1887 8.14996 39.5066 8.36063 39.7493 8.64539C39.9921 8.93015 40.1499 9.27751 40.2049 9.64781C40.2918 9.97211 40.2942 10.3133 40.2119 10.6388C40.0484 11.2816 39.6002 11.7818 39.1916 12.1651C38.8414 12.4923 34.2982 16.877 29.8181 21.2057L23.7177 27.0957L22.6321 28.1474L36.341 38.6699C36.5261 38.7477 36.727 38.7797 36.927 38.7634C37.0278 38.7497 37.1225 38.7076 37.2002 38.6419C37.2948 38.5619 37.376 38.4672 37.4407 38.3614L37.4453 38.3591L44.1924 4.29775C43.9799 4.34894 43.7715 4.41613 43.5691 4.49876L43.5644 4.5011ZM23.8111 33.4694L21.0749 31.3706L20.4118 35.5894L23.8111 33.4694ZM18.5651 27.2055L21.285 24.5761L27.3854 18.6814L29.657 16.4891L14.4352 25.4105L14.5169 25.6021C15.4769 27.8727 16.4263 30.1476 17.3651 32.427L18.0258 28.2199C18.0856 27.8297 18.2757 27.4736 18.5651 27.2055Z" fill="white"/>
</svg>
